# xmcd
#
# Track frame offsets:
#  150
#  18227
#  34681
#  53846
#  69990
#  90864
#  109861
#  153470
#  168670
#  208456
#  230765
#
# Disc length: 3607 seconds
#
# Revision: 0
# Processed by: cddbd v1.5.1PL2 Copyright (c) Steve Scherf et al.
# Submitted via: Collectorz.com_Music_Collector 6.10
#
DISCID=8e0e150b
DTITLE=The Sound - Dutch Radio Recordings: 2.  09.04.82 Utrecht, No Nukes Festival
DYEAR=2006
DGENRE=New Wave - Rock
TTITLE0=All Fall Down
TTITLE1=Sense Of Purpose
TTITLE2=I Can't Escape Myself
TTITLE3=Hothouse
TTITLE4=Winning
TTITLE5=Where The Love Is
TTITLE6=Glass And Smoke
TTITLE7=Heartland
TTITLE8=New Dark Age
TTITLE9=Silent Air
TTITLE10=Missiles
EXTD=
EXTT0=
EXTT1=
EXTT2=
EXTT3=
EXTT4=
EXTT5=
EXTT6=
EXTT7=
EXTT8=
EXTT9=
EXTT10=
PLAYORDER=
